<svg width="199" height="28" viewBox="0 0 199 28" fill="none" xmlns="http://www.w3.org/2000/svg">
<g id="logo" clip-path="url(#clip0_54_1591)">
<path id="Vector" d="M15.4778 11.76L19.6236 12.88L21.0056 17.36L25.1514 18.76L26.2569 23.24L15.7542 25.9484M15.4778 11.76L12.5028 22.12M15.4778 11.76L25.1514 1.12L29.5736 3.08L35.3778 8.68L36.7597 12.88L26.5333 23.24M15.7542 25.9484L11.0556 27.44M15.7542 25.9484L12.5028 22.12M12.5028 22.12L11.0556 27.44M11.0556 27.44H0" stroke="white" stroke-width="2"/>
<path id="Vector_2" d="M50.8777 21.84V7.7728H55.72C57.3048 7.7728 58.5022 8.15735 59.3131 8.9264C60.1312 9.688 60.5402 10.6922 60.5402 11.9392C60.5402 13.1712 60.1312 14.1718 59.3131 14.9408C58.5022 15.7024 57.3048 16.0832 55.72 16.0832H52.6024V21.84H50.8777ZM58.6608 21.84L54.6808 15.456H56.5602L60.894 21.84H58.6608ZM52.6024 14.8512H55.5874C56.6266 14.8512 57.4154 14.5936 57.9532 14.0784C58.4988 13.5558 58.7714 12.88 58.7714 12.0512C58.7714 11.2 58.5099 10.5242 57.9864 10.024C57.4707 9.52375 56.715 9.2736 55.72 9.2736H52.6024V14.8512ZM69.4687 22.1088C68.555 22.1088 67.7369 21.8736 67.0144 21.4032C66.2996 20.9254 65.7319 20.2646 65.3118 19.4208C64.8994 18.577 64.6927 17.6064 64.6927 16.5088C64.6927 15.3366 64.8994 14.3286 65.3118 13.4848C65.7247 12.641 66.2886 11.9952 67.0033 11.5472C67.7258 11.0918 68.5478 10.864 69.4687 10.864C70.2724 10.864 70.9579 11.0283 71.525 11.3568C72.0927 11.6854 72.5499 12.1296 72.8959 12.6896C73.2425 13.2496 73.4819 13.8842 73.6145 14.5936C73.7549 15.2954 73.7953 16.0234 73.7362 16.7776H66.0857V15.7024H72.5974L72.0889 16.0384C72.111 15.5978 72.0856 15.1574 72.0115 14.7168C71.9452 14.2763 71.8164 13.8731 71.6245 13.5072C71.4333 13.1339 71.1641 12.8352 70.8175 12.6112C70.4714 12.3872 70.0292 12.2752 69.4908 12.2752C68.8131 12.2752 68.2454 12.4507 67.7883 12.8016C67.3317 13.1526 66.9889 13.6154 66.7601 14.1904C66.5318 14.7578 66.4174 15.3738 66.4174 16.0384V16.7552C66.4174 17.5019 66.5279 18.1702 66.749 18.76C66.9779 19.3498 67.3167 19.8166 67.7662 20.16C68.2161 20.5034 68.7833 20.6752 69.4687 20.6752C70.1542 20.6752 70.718 20.5072 71.1602 20.1712C71.6024 19.8352 71.8716 19.3386 71.9673 18.6816H73.7583C73.6477 19.391 73.3973 20.0032 73.0065 20.5184C72.6162 21.0262 72.1187 21.4182 71.514 21.6944C70.9098 21.9707 70.2282 22.1088 69.4687 22.1088ZM83.3362 22.1088C82.5624 22.1088 81.888 21.9296 81.3131 21.5712C80.7454 21.2128 80.307 20.6902 79.9975 20.0032C79.6879 19.3088 79.5331 18.465 79.5331 17.472H80.2628C80.2628 18.1366 80.3993 18.6966 80.6719 19.152C80.9444 19.6074 81.2981 19.9546 81.7332 20.1936C82.1754 20.425 82.6436 20.5408 83.1372 20.5408C83.6679 20.5408 84.1765 20.3878 84.6629 20.0816C85.1494 19.768 85.5474 19.3088 85.8569 18.704C86.1665 18.0992 86.3212 17.3526 86.3212 16.464C86.3212 15.6128 86.1775 14.8848 85.8901 14.28C85.6098 13.6752 85.2306 13.2123 84.7514 12.8912C84.2721 12.5702 83.7414 12.4096 83.1594 12.4096C82.658 12.4096 82.1865 12.5328 81.7442 12.7792C81.302 13.0256 80.9444 13.3878 80.6719 13.8656C80.3993 14.336 80.2628 14.9184 80.2628 15.6128H79.5331C79.5331 14.575 79.7028 13.705 80.0417 13.0032C80.3805 12.2938 80.8416 11.76 81.4236 11.4016C82.0057 11.0432 82.658 10.864 83.3805 10.864C84.2058 10.864 84.9763 11.088 85.6911 11.536C86.4058 11.984 86.9846 12.6262 87.4268 13.4624C87.869 14.2987 88.0901 15.2992 88.0901 16.464C88.0901 17.6438 87.8652 18.6554 87.4157 19.4992C86.9735 20.343 86.3914 20.9888 85.669 21.4368C84.9465 21.8848 84.1693 22.1088 83.3362 22.1088ZM78.5381 27.104V11.1328H79.9754L80.2628 13.6416V27.104H78.5381ZM96.6797 22.1088C95.729 22.1088 94.881 21.896 94.137 21.4704C93.3996 21.0448 92.8175 20.4138 92.3902 19.5776C91.9623 18.7414 91.749 17.711 91.749 16.4864C91.749 15.2544 91.9623 14.224 92.3902 13.3952C92.8175 12.559 93.3996 11.928 94.137 11.5024C94.881 11.0768 95.729 10.864 96.6797 10.864C97.6228 10.864 98.463 11.0768 99.2004 11.5024C99.9444 11.928 100.527 12.559 100.947 13.3952C101.374 14.224 101.588 15.2544 101.588 16.4864C101.588 17.711 101.374 18.7414 100.947 19.5776C100.527 20.4138 99.9444 21.0448 99.2004 21.4704C98.463 21.896 97.6228 22.1088 96.6797 22.1088ZM96.6355 20.5856C97.321 20.5856 97.903 20.4214 98.3823 20.0928C98.861 19.7568 99.2225 19.2826 99.4657 18.6704C99.7162 18.0582 99.8416 17.3302 99.8416 16.4864C99.8416 15.2096 99.5796 14.2054 99.0567 13.4736C98.5332 12.7344 97.7554 12.3648 96.724 12.3648C96.0308 12.3648 95.4448 12.5328 94.9661 12.8688C94.4941 13.1974 94.1331 13.6715 93.8827 14.2912C93.6395 14.9035 93.5179 15.6352 93.5179 16.4864C93.5179 17.7483 93.7793 18.7488 94.3028 19.488C94.8335 20.2198 95.6107 20.5856 96.6355 20.5856ZM106.328 21.84V11.1104H108.053V21.84H106.328ZM107.522 17.0016C107.522 15.6426 107.651 14.5152 107.909 13.6192C108.167 12.7158 108.543 12.0438 109.037 11.6032C109.538 11.1552 110.146 10.9312 110.861 10.9312C111.097 10.9312 111.311 10.9499 111.502 10.9872C111.701 11.0171 111.9 11.0656 112.099 11.1328L111.989 12.8576C111.782 12.7904 111.558 12.7344 111.315 12.6896C111.071 12.6374 110.854 12.6112 110.662 12.6112C110.035 12.6112 109.531 12.7942 109.148 13.16C108.764 13.5184 108.484 14.0262 108.307 14.6832C108.138 15.3402 108.053 16.113 108.053 17.0016H107.522ZM118.95 22.1088C118.375 22.1088 117.859 21.9968 117.402 21.7728C116.945 21.5488 116.584 21.2128 116.319 20.7648C116.053 20.3168 115.921 19.7568 115.921 19.0848V8.1536H117.623V19.04C117.623 20.145 118.132 20.6976 119.149 20.6976C119.451 20.6976 119.742 20.664 120.022 20.5968C120.31 20.5296 120.631 20.4288 120.984 20.2944L121.228 21.5488C120.852 21.713 120.476 21.8474 120.1 21.952C119.731 22.0566 119.348 22.1088 118.95 22.1088ZM114.218 12.3424V11.1328H120.962V12.3424H114.218ZM132.024 21.84V7.7728H137.22C138.237 7.7728 139.081 7.94455 139.752 8.288C140.422 8.624 140.924 9.072 141.255 9.632C141.587 10.1846 141.753 10.7894 141.753 11.4464C141.753 12.2528 141.532 12.9547 141.089 13.552C140.654 14.1418 139.999 14.5451 139.121 14.7616C139.689 14.8512 140.187 15.0566 140.614 15.3776C141.049 15.6912 141.388 16.0794 141.631 16.5424C141.874 16.9978 141.996 17.487 141.996 18.0096C141.996 18.4874 141.915 18.9542 141.753 19.4096C141.598 19.865 141.336 20.2758 140.968 20.6416C140.599 21.0074 140.109 21.2986 139.497 21.5152C138.885 21.7318 138.126 21.84 137.22 21.84H132.024ZM133.748 20.3168H137.198C138.252 20.3168 139.007 20.0928 139.464 19.6448C139.929 19.1968 140.161 18.6218 140.161 17.92C140.161 17.2106 139.91 16.6432 139.409 16.2176C138.908 15.7846 138.171 15.568 137.198 15.568H133.748V20.3168ZM133.748 9.2736V14.0672H137.154C138.016 14.0672 138.701 13.8544 139.21 13.4288C139.726 12.9958 139.984 12.3872 139.984 11.6032C139.984 10.8714 139.733 10.3002 139.232 9.8896C138.738 9.47895 138.053 9.2736 137.176 9.2736H133.748ZM154.325 11.1104H156.05V21.84H154.325V11.1104ZM146.829 11.1104H148.554V17.7856C148.554 18.6816 148.767 19.3611 149.195 19.824C149.63 20.287 150.249 20.5184 151.053 20.5184C151.716 20.5184 152.291 20.3392 152.777 19.9808C153.271 19.6224 153.651 19.1296 153.916 18.5024C154.189 17.8678 154.325 17.1434 154.325 16.3296H154.966C154.966 17.5318 154.793 18.5584 154.447 19.4096C154.107 20.2608 153.625 20.9142 152.998 21.3696C152.379 21.8176 151.65 22.0416 150.809 22.0416C150.013 22.0416 149.317 21.8923 148.72 21.5936C148.123 21.295 147.659 20.8432 147.327 20.2384C146.995 19.6262 146.829 18.8534 146.829 17.92V11.1104ZM165.689 22.1088C164.834 22.1088 164.05 21.8774 163.334 21.4144C162.619 20.944 162.048 20.287 161.621 19.4432C161.193 18.592 160.979 17.5914 160.979 16.4416C160.979 15.2992 161.189 14.3098 161.61 13.4736C162.03 12.6374 162.586 11.9952 163.279 11.5472C163.979 11.0918 164.746 10.864 165.579 10.864C166.352 10.864 167.031 11.0544 167.613 11.4352C168.203 11.816 168.66 12.3648 168.984 13.0816C169.308 13.7984 169.47 14.6646 169.47 15.68H168.807C168.807 14.9706 168.667 14.3734 168.387 13.888C168.114 13.4026 167.756 13.0368 167.314 12.7904C166.872 12.5366 166.397 12.4096 165.888 12.4096C165.313 12.4096 164.786 12.5739 164.307 12.9024C163.836 13.2235 163.456 13.6864 163.168 14.2912C162.889 14.8886 162.748 15.6054 162.748 16.4416C162.748 17.2928 162.889 18.0246 163.168 18.6368C163.456 19.249 163.836 19.7194 164.307 20.048C164.786 20.3766 165.313 20.5408 165.888 20.5408C166.367 20.5408 166.828 20.4138 167.27 20.16C167.72 19.9062 168.088 19.5366 168.376 19.0512C168.663 18.5584 168.807 17.9648 168.807 17.2704H169.47C169.47 18.3082 169.301 19.1894 168.962 19.9136C168.63 20.6304 168.177 21.1754 167.602 21.5488C167.035 21.9222 166.397 22.1088 165.689 22.1088ZM169.094 21.84L168.807 19.3312V6.5632H170.531V21.84H169.094ZM180.178 22.1088C179.323 22.1088 178.538 21.8774 177.823 21.4144C177.108 20.944 176.537 20.287 176.109 19.4432C175.682 18.592 175.468 17.5914 175.468 16.4416C175.468 15.2992 175.678 14.3098 176.098 13.4736C176.519 12.6374 177.075 11.9952 177.768 11.5472C178.468 11.0918 179.235 10.864 180.067 10.864C180.841 10.864 181.52 11.0544 182.102 11.4352C182.691 11.816 183.149 12.3648 183.472 13.0816C183.797 13.7984 183.959 14.6646 183.959 15.68H183.296C183.296 14.9706 183.156 14.3734 182.875 13.888C182.603 13.4026 182.245 13.0368 181.803 12.7904C181.361 12.5366 180.885 12.4096 180.377 12.4096C179.802 12.4096 179.275 12.5739 178.796 12.9024C178.324 13.2235 177.945 13.6864 177.657 14.2912C177.378 14.8886 177.237 15.6054 177.237 16.4416C177.237 17.2928 177.378 18.0246 177.657 18.6368C177.945 19.249 178.324 19.7194 178.796 20.048C179.275 20.3766 179.802 20.5408 180.377 20.5408C180.856 20.5408 181.317 20.4138 181.759 20.16C182.209 19.9062 182.577 19.5366 182.864 19.0512C183.152 18.5584 183.296 17.9648 183.296 17.2704H183.959C183.959 18.3082 183.79 19.1894 183.45 19.9136C183.119 20.6304 182.665 21.1754 182.091 21.5488C181.523 21.9222 180.885 22.1088 180.178 22.1088ZM183.583 21.84L183.296 19.3312V6.5632H185.02V21.84H183.583ZM189.139 11.1328H191.063L194.512 20.3168H194.114L196.789 11.1328H198.558L194.578 23.9904C194.247 25.0656 193.804 25.8944 193.252 26.4768C192.699 27.0592 191.991 27.3504 191.129 27.3504C190.665 27.3504 190.222 27.2832 189.802 27.1488C189.39 27.0144 188.962 26.8202 188.52 26.5664V24.9536C188.911 25.2672 189.287 25.4912 189.648 25.6256C190.016 25.76 190.399 25.8272 190.797 25.8272C191.24 25.8272 191.608 25.6854 191.903 25.4016C192.205 25.1178 192.456 24.752 192.655 24.304C192.854 23.8635 193.023 23.4006 193.163 22.9152L193.473 21.84L189.139 11.1328Z" fill="white"/>
</g>
<defs>
<clipPath id="clip0_54_1591">
<rect width="199" height="28" fill="white"/>
</clipPath>
</defs>
</svg>
